# xmcd
# 
# Track frame offsets:
#     183
#     12533
#     25093
#     34960
#     54900
#     67483
#     78040
#     95505
#     109940
#     120133
#     132615
#     146393
#     160775
#     172840
#     189335
#     199545
# 
# Disc length: 2835
# 
# Revision: 3
# Processed by: cddbd v1.5.2PL0 Copyright (c) Steve Scherf et al.
# Submitted via: BonkEnc v1.0.15
# 
DISCID=ce0b1110
DTITLE=Tom Astor - Super Trucker Hits
DYEAR=1988
DGENRE=Country
TTITLE0=Radwechsel
TTITLE1=Junge zieh die Bremse an
TTITLE2=Sicht weg - Gas weg !
TTITLE3=Daddy, wenn ich gross bin, fahr ich Diesel
TTITLE4=Von New York City nach L.A.
TTITLE5=Highway - Helden
TTITLE6=Mein Freund Charly
TTITLE7=Devil
TTITLE8=Ihr Leben, das ist ihr Laster
TTITLE9=Am Rand der Strasse
TTITLE10=Krawattentrucker Erwin
TTITLE11=Ich trink mein Bier gern aus der Flasche
TTITLE12=14 Tage auf dem Brenner
TTITLE13=Wer die Oma nicht kennt, hat die Zeit echt verpennt
TTITLE14=Übermüdung tötet
TTITLE15=Buchstabiere LKW
EXTD=YEAR: 1988
EXTT0=
EXTT1=
EXTT2=
EXTT3=
EXTT4=
EXTT5=
EXTT6=
EXTT7=
EXTT8=
EXTT9=
EXTT10=
EXTT11=
EXTT12=
EXTT13=
EXTT14=
EXTT15=
PLAYORDER=
